<?xml version="1.0" encoding="UTF-8" standalone="no"?>
<!DOCTYPE svg PUBLIC "-//W3C//DTD SVG 1.1//EN" "http://www.w3.org/Graphics/SVG/1.1/DTD/svg11.dtd">
<svg width="100%" height="100%" viewBox="0 0 1086 844" version="1.1" xmlns="http://www.w3.org/2000/svg" xmlns:xlink="http://www.w3.org/1999/xlink" xml:space="preserve" xmlns:serif="http://www.serif.com/" style="fill-rule:evenodd;clip-rule:evenodd;stroke-linecap:round;stroke-linejoin:round;stroke-miterlimit:1.5;">
    <g transform="matrix(1,0,0,1,-1179.55,-1.55431e-15)">
        <g id="Artboard2" transform="matrix(0.711513,0,0,0.611856,317.806,-0.11706)">
            <rect x="1211.14" y="0.191" width="1526.28" height="1379.39" style="fill:none;"/>
            <g transform="matrix(1.40546,0,0,1.63437,-2712.53,-245.959)">
                <rect x="2831.52" y="233.26" width="81.456" height="81.456" style="fill:none;stroke:black;stroke-width:2px;"/>
            </g>
            <g transform="matrix(1.40546,0,0,1.63437,-2712.53,-245.959)">
                <rect x="2872.25" y="273.988" width="40.728" height="40.728" style="fill:none;stroke:black;stroke-width:2px;"/>
            </g>
            <g transform="matrix(1.40546,0,0,1.63437,-2712.53,-245.959)">
                <rect x="2831.52" y="233.26" width="40.728" height="40.728" style="fill:none;stroke:black;stroke-width:2px;"/>
            </g>
            <g transform="matrix(1.40546,0,0,1.63437,-2712.53,-245.959)">
                <rect x="2872.25" y="233.26" width="40.728" height="40.728" style="fill:none;stroke:black;stroke-width:2px;"/>
            </g>
            <g transform="matrix(1.40546,0,0,1.63437,-2712.53,-245.959)">
                <rect x="2831.52" y="273.988" width="40.728" height="40.728" style="fill:none;stroke:black;stroke-width:2px;"/>
            </g>
            <g transform="matrix(0.735518,0,0,0.855317,1796.67,50.7619)">
                <path d="M353.02,176.613L0.177,353.034L0.177,0.191L353.02,176.613ZM104.477,233.257L104.477,186.258L57.829,186.258L57.829,166.617L104.477,166.617L104.477,119.969L124.352,119.969L124.352,166.617L171,166.617L171,186.258L124.352,186.258L124.352,233.257L104.477,233.257Z" style="fill:rgb(105,105,105);"/>
            </g>
            <g transform="matrix(0.735518,0,0,0.855317,1796.67,366.305)">
                <path d="M353.02,176.613L0.177,353.034L0.177,0.191L353.02,176.613ZM104.477,233.257L104.477,186.258L57.829,186.258L57.829,166.617L104.477,166.617L104.477,119.969L124.352,119.969L124.352,166.617L171,166.617L171,186.258L124.352,186.258L124.352,233.257L104.477,233.257Z" style="fill:rgb(105,105,105);"/>
            </g>
            <g transform="matrix(0.735518,0,0,0.855317,1796.67,697.924)">
                <path d="M353.02,176.613L0.177,353.034L0.177,0.191L353.02,176.613ZM104.477,233.257L104.477,186.258L57.829,186.258L57.829,166.617L104.477,166.617L104.477,119.969L124.352,119.969L124.352,166.617L171,166.617L171,186.258L124.352,186.258L124.352,233.257L104.477,233.257Z" style="fill:rgb(105,105,105);"/>
            </g>
            <g transform="matrix(0.735518,0,0,0.855317,1796.67,1026.89)">
                <path d="M353.02,176.613L0.177,353.034L0.177,0.191L353.02,176.613ZM104.477,233.257L104.477,186.258L57.829,186.258L57.829,166.617L104.477,166.617L104.477,119.969L124.352,119.969L124.352,166.617L171,166.617L171,186.258L124.352,186.258L124.352,233.257L104.477,233.257Z" style="fill:rgb(105,105,105);"/>
            </g>
            <g transform="matrix(1.33529,0,0,1.30219,1229.05,-597.513)">
                <path d="M49.681,538.714L425.189,538.714" style="fill:none;stroke:black;stroke-width:2.28px;"/>
            </g>
            <g transform="matrix(0.432163,0,0,1.30219,1613.05,-281.97)">
                <path d="M49.681,538.714L425.189,538.714" style="fill:none;stroke:black;stroke-width:3.31px;"/>
            </g>
            <g transform="matrix(0.432163,0,0,1.30219,1613.05,49.6492)">
                <path d="M49.681,538.714L425.189,538.714" style="fill:none;stroke:black;stroke-width:3.31px;"/>
            </g>
            <g transform="matrix(0.432163,0,0,1.30219,1613.05,378.619)">
                <path d="M49.681,538.714L425.189,538.714" style="fill:none;stroke:black;stroke-width:3.31px;"/>
            </g>
            <g transform="matrix(0.428729,0,0,1.30219,2196.01,-147.07)">
                <path d="M49.681,538.714L425.189,538.714" style="fill:none;stroke:black;stroke-width:3.32px;"/>
            </g>
            <g transform="matrix(0.428729,0,0,1.30219,2035.02,-499.685)">
                <path d="M49.681,538.714L425.189,538.714" style="fill:none;stroke:black;stroke-width:3.32px;"/>
            </g>
            <g transform="matrix(0.11632,0,0,1.30219,2050.54,-184.142)">
                <path d="M49.681,538.714L425.189,538.714" style="fill:none;stroke:black;stroke-width:3.53px;"/>
            </g>
            <g transform="matrix(0.11632,0,0,1.30219,2050.54,147.477)">
                <path d="M49.681,538.714L425.189,538.714" style="fill:none;stroke:black;stroke-width:3.53px;"/>
            </g>
            <g transform="matrix(0.11632,0,0,1.30219,2050.54,476.447)">
                <path d="M49.681,538.714L425.189,538.714" style="fill:none;stroke:black;stroke-width:3.53px;"/>
            </g>
            <g transform="matrix(1.02381,0,0,1.30219,1361.49,-532.403)">
                <path d="M49.681,538.714L425.189,538.714" style="fill:none;stroke:black;stroke-width:2.62px;"/>
            </g>
            <g transform="matrix(0.586562,0,0,1.30219,1547.4,-216.861)">
                <path d="M49.681,538.714L425.189,538.714" style="fill:none;stroke:black;stroke-width:3.14px;"/>
            </g>
            <g transform="matrix(0.586562,0,0,1.30219,1547.4,114.759)">
                <path d="M49.681,538.714L425.189,538.714" style="fill:none;stroke:black;stroke-width:3.14px;"/>
            </g>
            <g transform="matrix(0.586562,0,0,1.30219,1547.4,443.728)">
                <path d="M49.681,538.714L425.189,538.714" style="fill:none;stroke:black;stroke-width:3.14px;"/>
            </g>
            <g transform="matrix(0.741137,0,0,1.30219,2063.18,-81.9602)">
                <path d="M49.681,538.714L425.189,538.714" style="fill:none;stroke:black;stroke-width:2.96px;"/>
            </g>
            <g transform="matrix(1.02381,0,0,1.30219,1361.49,-467.294)">
                <path d="M49.681,538.714L425.189,538.714" style="fill:none;stroke:black;stroke-width:2.62px;"/>
            </g>
            <g transform="matrix(0.720242,0,0,1.30219,1490.56,-151.751)">
                <path d="M49.681,538.714L425.189,538.714" style="fill:none;stroke:black;stroke-width:2.99px;"/>
            </g>
            <g transform="matrix(0.720242,0,0,1.30219,1490.56,179.868)">
                <path d="M49.681,538.714L425.189,538.714" style="fill:none;stroke:black;stroke-width:2.99px;"/>
            </g>
            <g transform="matrix(0.720242,0,0,1.30219,1490.56,508.838)">
                <path d="M49.681,538.714L425.189,538.714" style="fill:none;stroke:black;stroke-width:2.99px;"/>
            </g>
            <g transform="matrix(0.741137,0,0,1.30219,2063.18,-16.8508)">
                <path d="M49.681,538.714L425.189,538.714" style="fill:none;stroke:black;stroke-width:2.96px;"/>
            </g>
            <g transform="matrix(1.33529,0,0,1.30219,1229.05,-402.185)">
                <path d="M49.681,538.714L425.189,538.714" style="fill:none;stroke:black;stroke-width:2.28px;"/>
            </g>
            <g transform="matrix(0.857457,0,0,1.30219,1432.22,-86.6418)">
                <path d="M49.681,538.714L425.189,538.714" style="fill:none;stroke:black;stroke-width:2.82px;"/>
            </g>
            <g transform="matrix(0.857457,0,0,1.30219,1432.22,244.977)">
                <path d="M49.681,538.714L425.189,538.714" style="fill:none;stroke:black;stroke-width:2.82px;"/>
            </g>
            <g transform="matrix(0.857457,0,0,1.30219,1432.22,573.947)">
                <path d="M49.681,538.714L425.189,538.714" style="fill:none;stroke:black;stroke-width:2.82px;"/>
            </g>
            <g transform="matrix(0.428729,0,0,0.651093,2196.01,399.012)">
                <path d="M49.681,538.714L425.189,538.714" style="fill:none;stroke:black;stroke-width:5.64px;"/>
            </g>
            <g transform="matrix(5.59213e-17,-2.59949,1.12691,1.9641e-16,867.731,1404.6)">
                <path d="M49.681,538.714L425.189,538.714" style="fill:none;stroke:black;stroke-width:1.59px;"/>
            </g>
            <g transform="matrix(5.58692e-17,-2.59707,1.12586,1.96227e-16,919.823,1339.37)">
                <path d="M49.681,538.714L425.189,538.714" style="fill:none;stroke:black;stroke-width:1.59px;"/>
            </g>
            <g transform="matrix(2.45303e-17,-1.14029,0.494329,8.61567e-17,1951.01,1234.6)">
                <path d="M49.681,538.714L425.189,538.714" style="fill:none;stroke:black;stroke-width:3.62px;"/>
            </g>
            <g transform="matrix(2.45303e-17,-0.939035,0.494329,7.09506e-17,1951.01,601.089)">
                <path d="M49.681,538.714L425.189,538.714" style="fill:none;stroke:black;stroke-width:4.2px;"/>
            </g>
            <g transform="matrix(2.45303e-17,-0.437614,0.494329,3.30647e-17,1833.7,870.725)">
                <path d="M49.681,538.714L425.189,538.714" style="fill:none;stroke:black;stroke-width:6.4px;"/>
            </g>
            <g transform="matrix(2.35199e-17,-0.272116,0.473967,2.05603e-17,1844.67,633.066)">
                <path d="M49.681,538.714L425.189,538.714" style="fill:none;stroke:black;stroke-width:7.52px;"/>
            </g>
            <g transform="matrix(5.23577e-17,-2.59949,1.0551,1.9641e-16,1008.14,1274.38)">
                <path d="M49.681,538.714L425.189,538.714" style="fill:none;stroke:black;stroke-width:1.61px;"/>
            </g>
            <g transform="matrix(4.92618e-17,-2.59949,0.992709,1.9641e-16,1099.73,1209.27)">
                <path d="M49.681,538.714L425.189,538.714" style="fill:none;stroke:black;stroke-width:1.63px;"/>
            </g>
            <g transform="matrix(1.18343e-18,-0.0624487,0.0238482,4.71842e-18,1282.54,130.547)">
                <path d="M49.681,538.714L425.189,538.714" style="fill:none;stroke:black;stroke-width:67.65px;"/>
            </g>
            <g transform="matrix(1.18343e-18,-0.0624487,0.0238482,4.71842e-18,1282.54,302.394)">
                <path d="M49.681,538.714L425.189,538.714" style="fill:none;stroke:black;stroke-width:67.65px;"/>
            </g>
            <g transform="matrix(0.735518,0,0,0.70146,1601.5,-182.402)">
                <path d="M214.52,485.437C214.52,476.79 208.762,469.769 201.67,469.769L115.562,469.769C108.471,469.769 102.713,476.79 102.713,485.437L102.713,516.773C102.713,525.42 108.471,532.441 115.562,532.441L201.67,532.441C208.762,532.441 214.52,525.42 214.52,516.773L214.52,485.437Z" style="fill:rgb(254,107,107);stroke:black;stroke-width:4.18px;"/>
            </g>
            <g transform="matrix(0.735518,0,0,0.70146,1601.5,133.141)">
                <path d="M214.52,485.437C214.52,476.79 208.762,469.769 201.67,469.769L115.562,469.769C108.471,469.769 102.713,476.79 102.713,485.437L102.713,516.773C102.713,525.42 108.471,532.441 115.562,532.441L201.67,532.441C208.762,532.441 214.52,525.42 214.52,516.773L214.52,485.437Z" style="fill:rgb(254,107,107);stroke:black;stroke-width:4.18px;"/>
            </g>
            <g transform="matrix(0.735518,0,0,0.70146,1601.5,464.76)">
                <path d="M214.52,485.437C214.52,476.79 208.762,469.769 201.67,469.769L115.562,469.769C108.471,469.769 102.713,476.79 102.713,485.437L102.713,516.773C102.713,525.42 108.471,532.441 115.562,532.441L201.67,532.441C208.762,532.441 214.52,525.42 214.52,516.773L214.52,485.437Z" style="fill:rgb(254,107,107);stroke:black;stroke-width:4.18px;"/>
            </g>
            <g transform="matrix(0.735518,0,0,0.70146,1601.5,793.73)">
                <path d="M214.52,485.437C214.52,476.79 208.762,469.769 201.67,469.769L115.562,469.769C108.471,469.769 102.713,476.79 102.713,485.437L102.713,516.773C102.713,525.42 108.471,532.441 115.562,532.441L201.67,532.441C208.762,532.441 214.52,525.42 214.52,516.773L214.52,485.437Z" style="fill:rgb(254,107,107);stroke:black;stroke-width:4.18px;"/>
            </g>
            <g transform="matrix(0.735518,0,0,0.70146,1601.5,-247.511)">
                <path d="M214.52,485.437C214.52,476.79 208.762,469.769 201.67,469.769L115.562,469.769C108.471,469.769 102.713,476.79 102.713,485.437L102.713,516.773C102.713,525.42 108.471,532.441 115.562,532.441L201.67,532.441C208.762,532.441 214.52,525.42 214.52,516.773L214.52,485.437Z" style="fill:rgb(254,107,107);stroke:black;stroke-width:4.18px;"/>
            </g>
            <g transform="matrix(0.735518,0,0,0.70146,1601.5,68.0319)">
                <path d="M214.52,485.437C214.52,476.79 208.762,469.769 201.67,469.769L115.562,469.769C108.471,469.769 102.713,476.79 102.713,485.437L102.713,516.773C102.713,525.42 108.471,532.441 115.562,532.441L201.67,532.441C208.762,532.441 214.52,525.42 214.52,516.773L214.52,485.437Z" style="fill:rgb(254,107,107);stroke:black;stroke-width:4.18px;"/>
            </g>
            <g transform="matrix(0.735518,0,0,0.70146,1601.5,399.651)">
                <path d="M214.52,485.437C214.52,476.79 208.762,469.769 201.67,469.769L115.562,469.769C108.471,469.769 102.713,476.79 102.713,485.437L102.713,516.773C102.713,525.42 108.471,532.441 115.562,532.441L201.67,532.441C208.762,532.441 214.52,525.42 214.52,516.773L214.52,485.437Z" style="fill:rgb(254,107,107);stroke:black;stroke-width:4.18px;"/>
            </g>
            <g transform="matrix(0.735518,0,0,0.70146,1601.5,728.621)">
                <path d="M214.52,485.437C214.52,476.79 208.762,469.769 201.67,469.769L115.562,469.769C108.471,469.769 102.713,476.79 102.713,485.437L102.713,516.773C102.713,525.42 108.471,532.441 115.562,532.441L201.67,532.441C208.762,532.441 214.52,525.42 214.52,516.773L214.52,485.437Z" style="fill:rgb(254,107,107);stroke:black;stroke-width:4.18px;"/>
            </g>
            <g transform="matrix(0.735518,0,0,0.70146,1601.5,-52.183)">
                <path d="M214.52,485.437C214.52,476.79 208.762,469.769 201.67,469.769L115.562,469.769C108.471,469.769 102.713,476.79 102.713,485.437L102.713,516.773C102.713,525.42 108.471,532.441 115.562,532.441L201.67,532.441C208.762,532.441 214.52,525.42 214.52,516.773L214.52,485.437Z" style="fill:rgb(254,107,107);stroke:black;stroke-width:4.18px;"/>
            </g>
            <g transform="matrix(0.735518,0,0,0.70146,1601.5,263.36)">
                <path d="M214.52,485.437C214.52,476.79 208.762,469.769 201.67,469.769L115.562,469.769C108.471,469.769 102.713,476.79 102.713,485.437L102.713,516.773C102.713,525.42 108.471,532.441 115.562,532.441L201.67,532.441C208.762,532.441 214.52,525.42 214.52,516.773L214.52,485.437Z" style="fill:rgb(254,107,107);stroke:black;stroke-width:4.18px;"/>
            </g>
            <g transform="matrix(0.735518,0,0,0.70146,1601.5,594.979)">
                <path d="M214.52,485.437C214.52,476.79 208.762,469.769 201.67,469.769L115.562,469.769C108.471,469.769 102.713,476.79 102.713,485.437L102.713,516.773C102.713,525.42 108.471,532.441 115.562,532.441L201.67,532.441C208.762,532.441 214.52,525.42 214.52,516.773L214.52,485.437Z" style="fill:rgb(254,107,107);stroke:black;stroke-width:4.18px;"/>
            </g>
            <g transform="matrix(0.735518,0,0,0.70146,1601.5,923.949)">
                <path d="M214.52,485.437C214.52,476.79 208.762,469.769 201.67,469.769L115.562,469.769C108.471,469.769 102.713,476.79 102.713,485.437L102.713,516.773C102.713,525.42 108.471,532.441 115.562,532.441L201.67,532.441C208.762,532.441 214.52,525.42 214.52,516.773L214.52,485.437Z" style="fill:rgb(254,107,107);stroke:black;stroke-width:4.18px;"/>
            </g>
            <g transform="matrix(0.735518,0,0,0.70146,1601.5,-117.292)">
                <path d="M214.52,485.437C214.52,476.79 208.762,469.769 201.67,469.769L115.562,469.769C108.471,469.769 102.713,476.79 102.713,485.437L102.713,516.773C102.713,525.42 108.471,532.441 115.562,532.441L201.67,532.441C208.762,532.441 214.52,525.42 214.52,516.773L214.52,485.437Z" style="fill:rgb(254,107,107);stroke:black;stroke-width:4.18px;"/>
            </g>
            <g transform="matrix(0.735518,0,0,0.70146,1601.5,198.251)">
                <path d="M214.52,485.437C214.52,476.79 208.762,469.769 201.67,469.769L115.562,469.769C108.471,469.769 102.713,476.79 102.713,485.437L102.713,516.773C102.713,525.42 108.471,532.441 115.562,532.441L201.67,532.441C208.762,532.441 214.52,525.42 214.52,516.773L214.52,485.437Z" style="fill:rgb(254,107,107);stroke:black;stroke-width:4.18px;"/>
            </g>
            <g transform="matrix(0.735518,0,0,0.70146,1601.5,529.87)">
                <path d="M214.52,485.437C214.52,476.79 208.762,469.769 201.67,469.769L115.562,469.769C108.471,469.769 102.713,476.79 102.713,485.437L102.713,516.773C102.713,525.42 108.471,532.441 115.562,532.441L201.67,532.441C208.762,532.441 214.52,525.42 214.52,516.773L214.52,485.437Z" style="fill:rgb(254,107,107);stroke:black;stroke-width:4.18px;"/>
            </g>
            <g transform="matrix(0.735518,0,0,0.70146,1601.5,858.84)">
                <path d="M214.52,485.437C214.52,476.79 208.762,469.769 201.67,469.769L115.562,469.769C108.471,469.769 102.713,476.79 102.713,485.437L102.713,516.773C102.713,525.42 108.471,532.441 115.562,532.441L201.67,532.441C208.762,532.441 214.52,525.42 214.52,516.773L214.52,485.437Z" style="fill:rgb(254,107,107);stroke:black;stroke-width:4.18px;"/>
            </g>
            <g transform="matrix(0.735518,0,0,0.855317,1796.67,1026.89)">
                <path d="M353.02,176.613L0.177,353.034L0.177,0.191L353.02,176.613ZM104.477,233.257L104.477,186.258L57.829,186.258L57.829,166.617L104.477,166.617L104.477,119.969L124.352,119.969L124.352,166.617L171,166.617L171,186.258L124.352,186.258L124.352,233.257L104.477,233.257Z" style="fill:rgb(105,105,105);"/>
            </g>
            <g transform="matrix(0.735518,0,0,0.855317,2378.17,501.205)">
                <path d="M353.02,176.613L0.177,353.034L0.177,0.191L353.02,176.613ZM104.477,233.257L104.477,186.258L57.829,186.258L57.829,166.617L104.477,166.617L104.477,119.969L124.352,119.969L124.352,166.617L171,166.617L171,186.258L124.352,186.258L124.352,233.257L104.477,233.257Z" style="fill:rgb(105,105,105);"/>
            </g>
            <g transform="matrix(0.428729,0,0,1.30219,2035.02,476.447)">
                <path d="M49.681,538.714L425.189,538.714" style="fill:none;stroke:black;stroke-width:3.32px;"/>
            </g>
            <g transform="matrix(0.11632,0,0,1.30219,2632.05,-49.2419)">
                <path d="M49.681,538.714L425.189,538.714" style="fill:none;stroke:black;stroke-width:3.53px;"/>
            </g>
            <g transform="matrix(0.735518,0,0,0.70146,1601.5,793.73)">
                <path d="M214.52,485.437C214.52,476.79 208.762,469.769 201.67,469.769L115.562,469.769C108.471,469.769 102.713,476.79 102.713,485.437L102.713,516.773C102.713,525.42 108.471,532.441 115.562,532.441L201.67,532.441C208.762,532.441 214.52,525.42 214.52,516.773L214.52,485.437Z" style="fill:rgb(254,107,107);stroke:black;stroke-width:4.18px;"/>
            </g>
            <g transform="matrix(0.735518,0,0,0.70146,2183.01,268.042)">
                <path d="M214.52,485.437C214.52,476.79 208.762,469.769 201.67,469.769L115.562,469.769C108.471,469.769 102.713,476.79 102.713,485.437L102.713,516.773C102.713,525.42 108.471,532.441 115.562,532.441L201.67,532.441C208.762,532.441 214.52,525.42 214.52,516.773L214.52,485.437Z" style="fill:rgb(254,107,107);stroke:black;stroke-width:4.18px;"/>
            </g>
            <g transform="matrix(0.735518,0,0,0.70146,1601.5,728.621)">
                <path d="M214.52,485.437C214.52,476.79 208.762,469.769 201.67,469.769L115.562,469.769C108.471,469.769 102.713,476.79 102.713,485.437L102.713,516.773C102.713,525.42 108.471,532.441 115.562,532.441L201.67,532.441C208.762,532.441 214.52,525.42 214.52,516.773L214.52,485.437Z" style="fill:rgb(254,107,107);stroke:black;stroke-width:4.18px;"/>
            </g>
            <g transform="matrix(0.735518,0,0,0.70146,2183.01,202.932)">
                <path d="M214.52,485.437C214.52,476.79 208.762,469.769 201.67,469.769L115.562,469.769C108.471,469.769 102.713,476.79 102.713,485.437L102.713,516.773C102.713,525.42 108.471,532.441 115.562,532.441L201.67,532.441C208.762,532.441 214.52,525.42 214.52,516.773L214.52,485.437Z" style="fill:rgb(254,107,107);stroke:black;stroke-width:4.18px;"/>
            </g>
            <g transform="matrix(0.735518,0,0,0.70146,1601.5,923.949)">
                <path d="M214.52,485.437C214.52,476.79 208.762,469.769 201.67,469.769L115.562,469.769C108.471,469.769 102.713,476.79 102.713,485.437L102.713,516.773C102.713,525.42 108.471,532.441 115.562,532.441L201.67,532.441C208.762,532.441 214.52,525.42 214.52,516.773L214.52,485.437Z" style="fill:rgb(254,107,107);stroke:black;stroke-width:4.18px;"/>
            </g>
            <g transform="matrix(0.735518,0,0,0.70146,2183.01,398.26)">
                <path d="M214.52,485.437C214.52,476.79 208.762,469.769 201.67,469.769L115.562,469.769C108.471,469.769 102.713,476.79 102.713,485.437L102.713,516.773C102.713,525.42 108.471,532.441 115.562,532.441L201.67,532.441C208.762,532.441 214.52,525.42 214.52,516.773L214.52,485.437Z" style="fill:rgb(254,107,107);stroke:black;stroke-width:4.18px;"/>
            </g>
            <g transform="matrix(0.735518,0,0,0.70146,1601.5,858.84)">
                <path d="M214.52,485.437C214.52,476.79 208.762,469.769 201.67,469.769L115.562,469.769C108.471,469.769 102.713,476.79 102.713,485.437L102.713,516.773C102.713,525.42 108.471,532.441 115.562,532.441L201.67,532.441C208.762,532.441 214.52,525.42 214.52,516.773L214.52,485.437Z" style="fill:rgb(254,107,107);stroke:black;stroke-width:4.18px;"/>
            </g>
            <g transform="matrix(0.735518,0,0,0.70146,2183.01,333.151)">
                <path d="M214.52,485.437C214.52,476.79 208.762,469.769 201.67,469.769L115.562,469.769C108.471,469.769 102.713,476.79 102.713,485.437L102.713,516.773C102.713,525.42 108.471,532.441 115.562,532.441L201.67,532.441C208.762,532.441 214.52,525.42 214.52,516.773L214.52,485.437Z" style="fill:rgb(254,107,107);stroke:black;stroke-width:4.18px;"/>
            </g>
            <g transform="matrix(1.40546,0,0,1.63437,-2712.53,-245.959)">
                <circle cx="2979.35" cy="526.7" r="3.283"/>
            </g>
            <g transform="matrix(1.40546,0,0,1.63437,-2712.53,85.6605)">
                <circle cx="2979.35" cy="526.7" r="3.283"/>
            </g>
            <g transform="matrix(1.40546,0,0,1.63437,-2712.53,414.63)">
                <circle cx="2979.35" cy="526.7" r="3.283"/>
            </g>
            <g transform="matrix(1.40546,0,0,1.63437,-2712.53,-561.386)">
                <circle cx="2979.35" cy="526.7" r="3.283"/>
            </g>
            <g transform="matrix(1.40546,0,0,1.63437,-2661.01,-311.068)">
                <circle cx="2979.35" cy="526.7" r="3.283"/>
            </g>
            <g transform="matrix(1.40546,0,0,1.63437,-2661.01,20.5511)">
                <circle cx="2979.35" cy="526.7" r="3.283"/>
            </g>
            <g transform="matrix(1.40546,0,0,1.63437,-2661.01,349.521)">
                <circle cx="2979.35" cy="526.7" r="3.283"/>
            </g>
            <g transform="matrix(1.40546,0,0,1.63437,-2661.01,-626.495)">
                <circle cx="2979.35" cy="526.7" r="3.283"/>
            </g>
            <g transform="matrix(1.40546,0,0,1.63437,-2610.81,-376.177)">
                <circle cx="2979.35" cy="526.7" r="3.283"/>
            </g>
            <g transform="matrix(1.40546,0,0,1.63437,-2610.81,-44.5582)">
                <circle cx="2979.35" cy="526.7" r="3.283"/>
            </g>
            <g transform="matrix(1.40546,0,0,1.63437,-2610.81,284.412)">
                <circle cx="2979.35" cy="526.7" r="3.283"/>
            </g>
            <g transform="matrix(1.40546,0,0,1.63437,-2610.81,-691.604)">
                <circle cx="2979.35" cy="526.7" r="3.283"/>
            </g>
            <g transform="matrix(1.40546,0,0,1.63437,-2552.83,-441.287)">
                <circle cx="2979.35" cy="526.7" r="3.283"/>
            </g>
            <g transform="matrix(1.40546,0,0,1.63437,-2552.83,-109.668)">
                <circle cx="2979.35" cy="526.7" r="3.283"/>
            </g>
            <g transform="matrix(1.40546,0,0,1.63437,-2552.83,219.302)">
                <circle cx="2979.35" cy="526.7" r="3.283"/>
            </g>
            <g transform="matrix(1.40546,0,0,1.63437,-2552.83,-756.714)">
                <circle cx="2979.35" cy="526.7" r="3.283"/>
            </g>
        </g>
    </g>
</svg>
