<?xml version="1.0" encoding="UTF-8" standalone="no"?>
<!DOCTYPE svg PUBLIC "-//W3C//DTD SVG 1.1//EN" "http://www.w3.org/Graphics/SVG/1.1/DTD/svg11.dtd">
<svg width="100%" height="100%" viewBox="0 0 873 353" version="1.1" xmlns="http://www.w3.org/2000/svg" xmlns:xlink="http://www.w3.org/1999/xlink" xml:space="preserve" xmlns:serif="http://www.serif.com/" style="fill-rule:evenodd;clip-rule:evenodd;stroke-linecap:round;stroke-linejoin:round;stroke-miterlimit:1.5;">
    <g transform="matrix(1,0,0,1,0,-467.952)">
        <g id="Artboard1" transform="matrix(2.47281,0,0,1,-566.713,334.761)">
            <rect x="229.177" y="133.191" width="352.843" height="352.843" style="fill:none;"/>
            <clipPath id="_clip1">
                <rect x="229.177" y="133.191" width="352.843" height="352.843"/>
            </clipPath>
            <g clip-path="url(#_clip1)">
                <g transform="matrix(0.404397,0,0,1,401.051,133.191)">
                    <path d="M353.02,176.613L0.177,353.034L0.177,0.191L353.02,176.613ZM104.477,233.257L104.477,186.258L57.829,186.258L57.829,166.617L104.477,166.617L104.477,119.969L124.352,119.969L124.352,166.617L171,166.617L171,186.258L124.352,186.258L124.352,233.257L104.477,233.257Z" style="fill:rgb(105,105,105);"/>
                </g>
                <g transform="matrix(0.404397,0,0,1.52246,229.752,-624.744)">
                    <path d="M49.681,538.714L425.189,538.714" style="fill:none;stroke:black;stroke-width:10.09px;"/>
                </g>
                <g transform="matrix(0.0639545,0,0,1.52246,540.634,-510.368)">
                    <path d="M49.681,538.714L425.189,538.714" style="fill:none;stroke:black;stroke-width:12.01px;"/>
                </g>
                <g transform="matrix(0.404397,0,0,1.52246,229.752,-548.621)">
                    <path d="M49.681,538.714L425.189,538.714" style="fill:none;stroke:black;stroke-width:10.09px;"/>
                </g>
                <g transform="matrix(0.404397,0,0,1.52246,229.752,-472.498)">
                    <path d="M49.681,538.714L425.189,538.714" style="fill:none;stroke:black;stroke-width:10.09px;"/>
                </g>
                <g transform="matrix(0.404397,0,0,1.52246,229.752,-396.375)">
                    <path d="M49.681,538.714L425.189,538.714" style="fill:none;stroke:black;stroke-width:10.09px;"/>
                </g>
                <g transform="matrix(0.404397,0,0,0.820117,229.177,-139.414)">
                    <path d="M214.52,485.437C214.52,476.79 208.762,469.769 201.67,469.769L115.562,469.769C108.471,469.769 102.713,476.79 102.713,485.437L102.713,516.773C102.713,525.42 108.471,532.441 115.562,532.441L201.67,532.441C208.762,532.441 214.52,525.42 214.52,516.773L214.52,485.437Z" style="fill:rgb(117,183,248);stroke:black;stroke-width:14.22px;"/>
                </g>
                <g transform="matrix(0.404397,0,0,0.820117,229.177,-215.537)">
                    <path d="M214.52,485.437C214.52,476.79 208.762,469.769 201.67,469.769L115.562,469.769C108.471,469.769 102.713,476.79 102.713,485.437L102.713,516.773C102.713,525.42 108.471,532.441 115.562,532.441L201.67,532.441C208.762,532.441 214.52,525.42 214.52,516.773L214.52,485.437Z" style="fill:rgb(117,183,248);stroke:black;stroke-width:14.22px;"/>
                </g>
                <g transform="matrix(0.404397,0,0,0.820117,229.177,12.8326)">
                    <path d="M214.52,485.437C214.52,476.79 208.762,469.769 201.67,469.769L115.562,469.769C108.471,469.769 102.713,476.79 102.713,485.437L102.713,516.773C102.713,525.42 108.471,532.441 115.562,532.441L201.67,532.441C208.762,532.441 214.52,525.42 214.52,516.773L214.52,485.437Z" style="fill:rgb(117,183,248);stroke:black;stroke-width:14.22px;"/>
                </g>
                <g transform="matrix(0.404397,0,0,0.820117,229.177,-63.2905)">
                    <path d="M214.52,485.437C214.52,476.79 208.762,469.769 201.67,469.769L115.562,469.769C108.471,469.769 102.713,476.79 102.713,485.437L102.713,516.773C102.713,525.42 108.471,532.441 115.562,532.441L201.67,532.441C208.762,532.441 214.52,525.42 214.52,516.773L214.52,485.437Z" style="fill:rgb(117,183,248);stroke:black;stroke-width:14.22px;"/>
                </g>
                <g transform="matrix(0.404397,0,0,0.820117,293.747,-139.414)">
                    <path d="M214.52,485.437C214.52,476.79 208.762,469.769 201.67,469.769L115.562,469.769C108.471,469.769 102.713,476.79 102.713,485.437L102.713,516.773C102.713,525.42 108.471,532.441 115.562,532.441L201.67,532.441C208.762,532.441 214.52,525.42 214.52,516.773L214.52,485.437Z" style="fill:rgb(254,107,107);stroke:black;stroke-width:14.22px;"/>
                </g>
                <g transform="matrix(0.404397,0,0,0.820117,293.747,-215.537)">
                    <path d="M214.52,485.437C214.52,476.79 208.762,469.769 201.67,469.769L115.562,469.769C108.471,469.769 102.713,476.79 102.713,485.437L102.713,516.773C102.713,525.42 108.471,532.441 115.562,532.441L201.67,532.441C208.762,532.441 214.52,525.42 214.52,516.773L214.52,485.437Z" style="fill:rgb(254,107,107);stroke:black;stroke-width:14.22px;"/>
                </g>
                <g transform="matrix(0.404397,0,0,0.820117,293.747,12.8326)">
                    <path d="M214.52,485.437C214.52,476.79 208.762,469.769 201.67,469.769L115.562,469.769C108.471,469.769 102.713,476.79 102.713,485.437L102.713,516.773C102.713,525.42 108.471,532.441 115.562,532.441L201.67,532.441C208.762,532.441 214.52,525.42 214.52,516.773L214.52,485.437Z" style="fill:rgb(254,107,107);stroke:black;stroke-width:14.22px;"/>
                </g>
                <g transform="matrix(0.404397,0,0,0.820117,293.747,-63.2905)">
                    <path d="M214.52,485.437C214.52,476.79 208.762,469.769 201.67,469.769L115.562,469.769C108.471,469.769 102.713,476.79 102.713,485.437L102.713,516.773C102.713,525.42 108.471,532.441 115.562,532.441L201.67,532.441C208.762,532.441 214.52,525.42 214.52,516.773L214.52,485.437Z" style="fill:rgb(254,107,107);stroke:black;stroke-width:14.22px;"/>
                </g>
            </g>
        </g>
    </g>
</svg>
