<?xml version="1.0" encoding="UTF-8" standalone="no"?>
<!DOCTYPE svg PUBLIC "-//W3C//DTD SVG 1.1//EN" "http://www.w3.org/Graphics/SVG/1.1/DTD/svg11.dtd">
<svg width="100%" height="100%" viewBox="0 0 800 800" version="1.1" xmlns="http://www.w3.org/2000/svg" xmlns:xlink="http://www.w3.org/1999/xlink" xml:space="preserve" xmlns:serif="http://www.serif.com/" style="fill-rule:evenodd;clip-rule:evenodd;stroke-linejoin:round;stroke-miterlimit:2;">
    <path d="M800,800L-0,800L-0,-0L800,-0L800,800ZM500.295,647.953L483.776,647.953L483.776,147.368L500.295,147.368L500.295,647.953ZM129.793,498.246C129.793,526.316 127.433,561.403 113.274,561.403C103.835,561.403 101.475,554.386 99.115,549.708C96.755,542.69 94.395,535.672 84.956,535.672C77.876,535.672 68.436,542.69 70.796,552.047C73.156,568.421 89.675,573.099 103.835,573.099C141.593,573.099 155.752,533.333 155.752,498.246L155.752,322.807C155.752,308.772 165.192,308.772 176.991,306.433L186.43,306.433L186.43,297.076C174.631,297.076 155.752,299.415 141.593,299.415C120.354,299.415 110.914,297.076 103.835,297.076C101.475,297.076 99.115,297.076 96.755,301.754L96.755,304.094L99.115,306.433C125.074,306.433 129.793,311.111 129.793,327.485L129.793,498.246ZM724.484,297.076L691.445,297.076L691.445,416.374C691.445,456.14 679.646,484.211 641.888,484.211C601.77,484.211 589.971,456.14 589.971,416.374L589.971,297.076L559.292,297.076L559.292,421.053C559.292,479.532 589.971,512.281 641.888,512.281C693.805,512.281 724.484,479.532 724.484,421.053L724.484,297.076ZM403.54,442.105C403.54,425.731 408.259,423.392 422.419,423.392L424.779,423.392C427.139,423.392 427.139,421.053 427.139,418.713L427.139,414.035L339.823,414.035C337.463,414.035 337.463,416.374 337.463,421.053C337.463,423.392 337.463,425.731 339.823,425.731L361.062,425.731C372.861,425.731 382.301,430.409 382.301,444.444L382.301,465.497C382.301,484.21 363.422,498.246 328.023,498.246C280.826,498.246 243.068,453.801 243.068,402.339C243.068,329.825 297.345,304.094 332.743,304.094C372.861,304.094 389.38,327.485 394.1,348.538C394.1,350.877 396.46,350.877 398.82,350.877C398.82,350.877 403.54,350.877 403.54,348.538C403.54,334.503 403.54,311.111 401.18,308.772C384.661,299.415 363.422,292.398 335.103,292.398C302.065,292.398 210.029,311.111 210.029,407.018C210.029,451.462 247.787,509.941 332.743,509.941C346.902,509.941 382.301,507.602 403.54,491.228L403.54,442.105Z" style="fill:white;"/>
</svg>
