<?xml version="1.0" encoding="UTF-8" standalone="no"?>
<!DOCTYPE svg PUBLIC "-//W3C//DTD SVG 1.1//EN" "http://www.w3.org/Graphics/SVG/1.1/DTD/svg11.dtd">
<svg width="100%" height="100%" viewBox="0 0 353 353" version="1.1" xmlns="http://www.w3.org/2000/svg" xmlns:xlink="http://www.w3.org/1999/xlink" xml:space="preserve" xmlns:serif="http://www.serif.com/" style="fill-rule:evenodd;clip-rule:evenodd;stroke-linejoin:round;stroke-miterlimit:2;">
    <g transform="matrix(1,0,0,1,-212.417,-24.4461)">
        <g id="Artboard1" transform="matrix(1,0,0,1,-16.7601,-108.745)">
            <rect x="229.177" y="133.191" width="352.843" height="352.843" style="fill:none;"/>
            <clipPath id="_clip1">
                <rect x="229.177" y="133.191" width="352.843" height="352.843"/>
            </clipPath>
            <g clip-path="url(#_clip1)">
                <g transform="matrix(1,0,0,1,229.177,133.191)">
                    <path d="M353.02,176.613L0.177,353.034L0.177,0.191L353.02,176.613ZM104.477,233.257L104.477,186.258L57.829,186.258L57.829,166.617L104.477,166.617L104.477,119.969L124.352,119.969L124.352,166.617L171,166.617L171,186.258L124.352,186.258L124.352,233.257L104.477,233.257Z" style="fill:rgb(105,105,105);"/>
                </g>
            </g>
        </g>
    </g>
</svg>
