<?xml version="1.0" encoding="UTF-8"?><svg xmlns="http://www.w3.org/2000/svg" viewBox="0 0 506.66 566.93"><g id="a"/><g id="b"><g id="c"><g><path d="M29.26,120.33l49.92-28.82V475.45l-49.92-28.82c-18.1-10.46-29.26-29.77-29.26-50.67V171c0-20.91,11.16-40.22,29.26-50.67Z"/><path d="M175.6,257.23h-6.09V39.36L224.08,7.84c18.11-10.46,40.41-10.46,58.51,0l70.3,40.59-177.29,208.79Z"/><path d="M224.78,312.99l138.76,199.38-80.95,46.74c-6.02,3.47-12.5,5.79-19.13,6.94-13.34,2.35-27.29,.03-39.38-6.94l-54.57-31.51v-149.36l55.27-65.25Z"/><path d="M506.66,171v224.96c0,20.9-11.15,40.21-29.25,50.67l-36.9,21.3-152.91-216.06L426.36,90.86l51.05,29.47c18.1,10.45,29.25,29.76,29.25,50.67Z"/></g></g></g></svg>